# xmcd
#
# Track frame offsets:
#   182
#   13275
#   24642
#   38092
#   50657
#   65245
#   77007
#   90247
#   103525
#   116032
#   128582
#   144162
#   161545
#   178905
#
# Disc length: 2652 seconds
#
# Revision: 3
# Processed by: cddbd v1.5.1PL0 Copyright (c) Steve Scherf et al.
# Submitted via: Media_Universe 3.0
#
DISCID=b70a5a0e
DTITLE=Percy Sledge - When a Man Loves a Woman
DYEAR=1994
DGENRE=Rhythmic Soul
TTITLE0=When A Man Loves A Woman
TTITLE1=(Sitting On) The Dock Of The Bay
TTITLE2=My Special Prayer
TTITLE3=Behind Closed Doors
TTITLE4=Warm And Tender Love
TTITLE5=Tell It Like It Is
TTITLE6=Take Time To Know Her
TTITLE7=I've Been Loving You Too Long
TTITLE8=It Tears Me Up
TTITLE9=Cover Me
TTITLE10=Bring It On Home To Me
TTITLE11=Try A Little Tenderness
TTITLE12=If Loving You Is Wrong
TTITLE13=You Send Me
EXTD=YEAR: 1994
EXTT0=
EXTT1=
EXTT2=
EXTT3=
EXTT4=
EXTT5=
EXTT6=
EXTT7=
EXTT8=
EXTT9=
EXTT10=
EXTT11=
EXTT12=
EXTT13=
PLAYORDER=
